<svg xmlns="http://www.w3.org/2000/svg" viewBox="0 0 128 128"><g fill="none" fill-rule="evenodd"><path fill="#222" d="M0 0h128v128H0z"/><path d="M0 0h21v21H0V0Zm21 43V21h22v22H21Zm22 0h21v21H43V43Zm21 42V64h21v21H64ZM43 0h21v21H43V0Zm21 43V21h21v22H64ZM0 43h21v21H0V43Zm21 42V64h22v21H21ZM0 85h21v22H0V85Zm21 43v-21h22v21H21Zm22 0h21-21Zm0-43h21v22H43V85Zm21 43v-21h21v21H64Zm-64 0h21H0ZM85 0h22v21H85V0Zm22 43V21h21v22h-21Zm21 0v21-21Zm0-43v21V0ZM85 43h22v21H85V43Zm22 42V64h21v21h-21Zm-22 0h22v22H85V85Zm22 43v-21h21v21h-21Zm21-43v22-22Zm-43 43h22-22Z" fill="#FFF"/></g></svg>