<svg xmlns="http://www.w3.org/2000/svg" xmlns:xlink="http://www.w3.org/1999/xlink" viewBox="0 0 180 180"><defs><rect id="a" x="0" y="0" width="180" height="180" rx="90"/></defs><g fill="none" fill-rule="evenodd"><mask id="b" fill="#fff"><use xlink:href="#a"/></mask><use fill="#222" xlink:href="#a"/><path d="M50 50h13v13H50V50Zm13 27V63h14v14H63Zm14 0h13v13H77V77Zm13 26V90h13v13H90ZM77 50h13v13H77V50Zm13 27V63h13v14H90Zm-40 0h13v13H50V77Zm13 26V90h14v13H63Zm-13 0h13v14H50v-14Zm13 27v-13h14v13H63Zm14 0h13-13Zm0-27h13v14H77v-14Zm13 27v-13h13v13H90Zm-40 0h13-13Zm53-80h14v13h-14V50Zm14 27V63h13v14h-13Zm13 0v13-13Zm0-27v13-13Zm-27 27h14v13h-14V77Zm14 26V90h13v13h-13Zm-14 0h14v14h-14v-14Zm14 27v-13h13v13h-13Zm13-27v14-14Zm-27 27h14-14Z" fill="#FFF" mask="url(#b)"/></g></svg>