<svg xmlns="http://www.w3.org/2000/svg" xmlns:xlink="http://www.w3.org/1999/xlink" viewBox="0 0 180 180"><defs><rect id="a" x="0" y="0" width="180" height="180" rx="90"/></defs><g fill="none" fill-rule="evenodd"><mask id="b" fill="#fff"><use xlink:href="#a"/></mask><use fill="#222" xlink:href="#a"/><path d="M18 18h36v36H18V18Zm36 72V54h36v36H54Zm36 0h36v36H90V90Zm36 72v-36h36v36h-36ZM90 18h36v36H90V18Zm36 72V54h36v36h-36ZM18 90h36v36H18V90Zm36 72v-36h36v36H54ZM162 18h36v36h-36V18Zm36 72V54h36v36h-36Zm36 0h36v36h-36V90Zm36 72v-36h36v36h-36ZM234 18h36v36h-36V18Zm36 72V54h36v36h-36Zm-108 0h36v36h-36V90Zm36 72v-36h36v36h-36ZM18-126h36v36H18v-36Zm36 72v-36h36v36H54Zm36 0h36v36H90v-36Zm36 72v-36h36v36h-36ZM90-126h36v36H90v-36Zm36 72v-36h36v36h-36ZM18-54h36v36H18v-36Zm36 72v-36h36v36H54ZM-126 18h36v36h-36V18Zm36 72V54h36v36h-36Zm36 0h36v36h-36V90Zm36 72v-36h36v36h-36ZM-54 18h36v36h-36V18Zm36 72V54h36v36h-36Zm-108 0h36v36h-36V90Zm36 72v-36h36v36h-36ZM18 162h36v36H18v-36Zm36 72v-36h36v36H54Zm36 0h36v36H90v-36Zm36 72v-36h36v36h-36ZM90 162h36v36H90v-36Zm36 72v-36h36v36h-36Zm-108 0h36v36H18v-36Zm36 72v-36h36v36H54Z" fill="#FFF" mask="url(#b)"/></g></svg>